<svg width="676" height="222" viewBox="0 0 676 222" fill="none" xmlns="http://www.w3.org/2000/svg">
<path d="M5.1 13V10.888H0.552V10.108L5.1 4.06H5.94V10.108H7.032V10.888H5.94V13H5.1ZM1.284 10.456L1.176 10.108H5.1V4.888L5.4 4.972L1.284 10.456ZM8.48259 13V3.916H9.38259V10.276L8.99859 10.216L12.6106 6.568H13.7746L11.2546 9.148L14.0026 13H12.9226L10.3426 9.436L10.9186 9.484L9.08259 11.38L9.38259 10.636V13H8.48259Z" fill="#7C8FAC"/>
<line y1="23.5" x2="675" y2="23.5" stroke="#EAEFF4"/>
<path d="M3.528 56.144C3.064 56.144 2.636 56.064 2.244 55.904C1.852 55.744 1.508 55.516 1.212 55.22C0.924 54.924 0.704 54.572 0.552 54.164L1.32 53.804C1.504 54.268 1.792 54.636 2.184 54.908C2.576 55.172 3.024 55.304 3.528 55.304C3.928 55.304 4.284 55.228 4.596 55.076C4.908 54.916 5.152 54.688 5.328 54.392C5.504 54.096 5.592 53.736 5.592 53.312C5.592 52.888 5.5 52.528 5.316 52.232C5.14 51.936 4.896 51.712 4.584 51.56C4.272 51.408 3.916 51.332 3.516 51.332C3.412 51.332 3.296 51.336 3.168 51.344C3.048 51.352 2.948 51.364 2.868 51.38L2.676 50.96L5.088 47.9H0.972V47.06H6.168V47.9L3.912 50.744L3.792 50.588C4.328 50.604 4.804 50.732 5.22 50.972C5.636 51.204 5.96 51.52 6.192 51.92C6.432 52.32 6.552 52.784 6.552 53.312C6.552 53.84 6.424 54.32 6.168 54.752C5.912 55.176 5.556 55.516 5.1 55.772C4.644 56.02 4.12 56.144 3.528 56.144ZM8.2365 56V46.916H9.1365V53.276L8.7525 53.216L12.3645 49.568H13.5285L11.0085 52.148L13.7565 56H12.6765L10.0965 52.436L10.6725 52.484L8.8365 54.38L9.1365 53.636V56H8.2365Z" fill="#7C8FAC"/>
<line y1="66.5" x2="675" y2="66.5" stroke="#EAEFF4"/>
<path d="M0.696 99V98.4L3.192 95.652C3.68 95.116 4.076 94.672 4.38 94.32C4.692 93.968 4.924 93.648 5.076 93.36C5.228 93.072 5.304 92.76 5.304 92.424C5.304 91.888 5.148 91.476 4.836 91.188C4.524 90.9 4.108 90.756 3.588 90.756C3.052 90.756 2.6 90.908 2.232 91.212C1.872 91.516 1.628 91.94 1.5 92.484L0.624 92.292C0.728 91.804 0.916 91.384 1.188 91.032C1.46 90.68 1.8 90.408 2.208 90.216C2.616 90.016 3.072 89.916 3.576 89.916C4.112 89.916 4.58 90.024 4.98 90.24C5.38 90.456 5.692 90.752 5.916 91.128C6.148 91.504 6.264 91.936 6.264 92.424C6.264 92.76 6.192 93.084 6.048 93.396C5.912 93.708 5.704 94.044 5.424 94.404C5.144 94.764 4.784 95.184 4.344 95.664L2.076 98.16H6.504V99H0.696ZM8.11931 99V89.916H9.01931V96.276L8.63531 96.216L12.2473 92.568H13.4113L10.8913 95.148L13.6393 99H12.5593L9.97931 95.436L10.5553 95.484L8.71931 97.38L9.01931 96.636V99H8.11931Z" fill="#7C8FAC"/>
<line y1="109.5" x2="675" y2="109.5" stroke="#EAEFF4"/>
<path d="M2.172 142V133.9H0.492V133.06H3.132V142H2.172ZM5.37713 142V132.916H6.27713V139.276L5.89313 139.216L9.50513 135.568H10.6691L8.14913 138.148L10.8971 142H9.81713L7.23713 138.436L7.81313 138.484L5.97713 140.38L6.27713 139.636V142H5.37713Z" fill="#7C8FAC"/>
<line y1="152.5" x2="675" y2="152.5" stroke="#EAEFF4"/>
<path d="M4.404 185.144C3.7 185.144 3.08 184.952 2.544 184.568C2.016 184.176 1.604 183.636 1.308 182.948C1.012 182.252 0.864 181.444 0.864 180.524C0.864 179.604 1.012 178.8 1.308 178.112C1.604 177.416 2.016 176.876 2.544 176.492C3.072 176.108 3.688 175.916 4.392 175.916C5.096 175.916 5.712 176.108 6.24 176.492C6.768 176.876 7.18 177.416 7.476 178.112C7.772 178.8 7.92 179.604 7.92 180.524C7.92 181.444 7.772 182.252 7.476 182.948C7.188 183.644 6.78 184.184 6.252 184.568C5.724 184.952 5.108 185.144 4.404 185.144ZM4.404 184.244C4.916 184.244 5.364 184.088 5.748 183.776C6.132 183.464 6.432 183.032 6.648 182.48C6.864 181.92 6.972 181.268 6.972 180.524C6.972 179.78 6.864 179.132 6.648 178.58C6.432 178.02 6.132 177.588 5.748 177.284C5.364 176.972 4.912 176.816 4.392 176.816C3.88 176.816 3.432 176.972 3.048 177.284C2.664 177.588 2.364 178.02 2.148 178.58C1.932 179.132 1.824 179.78 1.824 180.524C1.824 181.26 1.932 181.908 2.148 182.468C2.364 183.028 2.664 183.464 3.048 183.776C3.44 184.088 3.892 184.244 4.404 184.244Z" fill="#7C8FAC"/>
<line y1="195.5" x2="675" y2="195.5" stroke="#EAEFF4"/>
<line x1="56.9271" y1="-2.18557e-08" x2="56.9271" y2="190" stroke="white"/>
<path d="M42.0991 218V209.9H40.4191V209.06H43.0591V218H42.0991ZM47.863 218.144C47.303 218.144 46.807 218.02 46.375 217.772C45.943 217.516 45.603 217.168 45.355 216.728C45.107 216.28 44.983 215.768 44.983 215.192C44.983 214.872 45.019 214.556 45.091 214.244C45.171 213.932 45.287 213.624 45.439 213.32C45.599 213.016 45.791 212.712 46.015 212.408L48.535 209.06H49.687L46.579 213.128L46.399 213.236C46.519 213.036 46.659 212.884 46.819 212.78C46.979 212.668 47.155 212.588 47.347 212.54C47.547 212.492 47.759 212.468 47.983 212.468C48.503 212.468 48.971 212.592 49.387 212.84C49.803 213.08 50.131 213.412 50.371 213.836C50.619 214.26 50.743 214.752 50.743 215.312C50.743 215.848 50.615 216.332 50.359 216.764C50.111 217.188 49.771 217.524 49.339 217.772C48.907 218.02 48.415 218.144 47.863 218.144ZM47.863 217.304C48.231 217.304 48.559 217.22 48.847 217.052C49.135 216.876 49.363 216.636 49.531 216.332C49.699 216.028 49.783 215.688 49.783 215.312C49.783 214.928 49.699 214.588 49.531 214.292C49.371 213.996 49.147 213.764 48.859 213.596C48.571 213.42 48.239 213.332 47.863 213.332C47.495 213.332 47.163 213.42 46.867 213.596C46.579 213.764 46.351 213.996 46.183 214.292C46.023 214.588 45.943 214.928 45.943 215.312C45.943 215.688 46.027 216.028 46.195 216.332C46.363 216.636 46.591 216.876 46.879 217.052C47.167 217.22 47.495 217.304 47.863 217.304ZM51.4472 219.44L55.5032 209.552H56.5472L52.4912 219.44H51.4472ZM60.9717 218.144C60.2677 218.144 59.6477 217.952 59.1117 217.568C58.5837 217.176 58.1717 216.636 57.8757 215.948C57.5797 215.252 57.4317 214.444 57.4317 213.524C57.4317 212.604 57.5797 211.8 57.8757 211.112C58.1717 210.416 58.5837 209.876 59.1117 209.492C59.6397 209.108 60.2557 208.916 60.9597 208.916C61.6637 208.916 62.2797 209.108 62.8077 209.492C63.3357 209.876 63.7477 210.416 64.0437 211.112C64.3397 211.8 64.4877 212.604 64.4877 213.524C64.4877 214.444 64.3397 215.252 64.0437 215.948C63.7557 216.644 63.3477 217.184 62.8197 217.568C62.2917 217.952 61.6757 218.144 60.9717 218.144ZM60.9717 217.244C61.4837 217.244 61.9317 217.088 62.3157 216.776C62.6997 216.464 62.9997 216.032 63.2157 215.48C63.4317 214.92 63.5397 214.268 63.5397 213.524C63.5397 212.78 63.4317 212.132 63.2157 211.58C62.9997 211.02 62.6997 210.588 62.3157 210.284C61.9317 209.972 61.4797 209.816 60.9597 209.816C60.4477 209.816 59.9997 209.972 59.6157 210.284C59.2317 210.588 58.9317 211.02 58.7157 211.58C58.4997 212.132 58.3917 212.78 58.3917 213.524C58.3917 214.26 58.4997 214.908 58.7157 215.468C58.9317 216.028 59.2317 216.464 59.6157 216.776C60.0077 217.088 60.4597 217.244 60.9717 217.244ZM70.4568 218V215.888H65.9088V215.108L70.4568 209.06H71.2968V215.108H72.3888V215.888H71.2968V218H70.4568ZM66.6408 215.456L66.5328 215.108H70.4568V209.888L70.7568 209.972L66.6408 215.456Z" fill="#7C8FAC"/>
<line x1="149.927" y1="-2.18557e-08" x2="149.927" y2="190" stroke="white"/>
<path d="M135.099 218V209.9H133.419V209.06H136.059V218H135.099ZM138.328 218L142.36 209.9H137.896V209.06H143.356V209.9L139.336 218H138.328ZM143.92 219.44L147.976 209.552H149.02L144.964 219.44H143.92ZM153.444 218.144C152.74 218.144 152.12 217.952 151.584 217.568C151.056 217.176 150.644 216.636 150.348 215.948C150.052 215.252 149.904 214.444 149.904 213.524C149.904 212.604 150.052 211.8 150.348 211.112C150.644 210.416 151.056 209.876 151.584 209.492C152.112 209.108 152.728 208.916 153.432 208.916C154.136 208.916 154.752 209.108 155.28 209.492C155.808 209.876 156.22 210.416 156.516 211.112C156.812 211.8 156.96 212.604 156.96 213.524C156.96 214.444 156.812 215.252 156.516 215.948C156.228 216.644 155.82 217.184 155.292 217.568C154.764 217.952 154.148 218.144 153.444 218.144ZM153.444 217.244C153.956 217.244 154.404 217.088 154.788 216.776C155.172 216.464 155.472 216.032 155.688 215.48C155.904 214.92 156.012 214.268 156.012 213.524C156.012 212.78 155.904 212.132 155.688 211.58C155.472 211.02 155.172 210.588 154.788 210.284C154.404 209.972 153.952 209.816 153.432 209.816C152.92 209.816 152.472 209.972 152.088 210.284C151.704 210.588 151.404 211.02 151.188 211.58C150.972 212.132 150.864 212.78 150.864 213.524C150.864 214.26 150.972 214.908 151.188 215.468C151.404 216.028 151.704 216.464 152.088 216.776C152.48 217.088 152.932 217.244 153.444 217.244ZM162.929 218V215.888H158.381V215.108L162.929 209.06H163.769V215.108H164.861V215.888H163.769V218H162.929ZM159.113 215.456L159.005 215.108H162.929V209.888L163.229 209.972L159.113 215.456Z" fill="#7C8FAC"/>
<line x1="243.427" y1="-2.18557e-08" x2="243.427" y2="190" stroke="white"/>
<path d="M228.099 218V209.9H226.419V209.06H229.059V218H228.099ZM234.148 218.144C233.572 218.144 233.056 218.028 232.6 217.796C232.152 217.556 231.796 217.232 231.532 216.824C231.276 216.408 231.148 215.94 231.148 215.42C231.148 214.852 231.308 214.344 231.628 213.896C231.956 213.448 232.396 213.136 232.948 212.96V213.212C232.524 213.028 232.196 212.756 231.964 212.396C231.732 212.028 231.616 211.636 231.616 211.22C231.616 210.78 231.728 210.388 231.952 210.044C232.176 209.7 232.476 209.428 232.852 209.228C233.236 209.02 233.668 208.916 234.148 208.916C234.636 208.916 235.068 209.016 235.444 209.216C235.82 209.408 236.116 209.68 236.332 210.032C236.556 210.376 236.668 210.772 236.668 211.22C236.668 211.668 236.548 212.068 236.308 212.42C236.068 212.764 235.752 213.028 235.36 213.212L235.348 212.96C235.9 213.136 236.336 213.448 236.656 213.896C236.984 214.344 237.148 214.852 237.148 215.42C237.148 215.94 237.016 216.408 236.752 216.824C236.496 217.232 236.14 217.556 235.684 217.796C235.236 218.028 234.724 218.144 234.148 218.144ZM234.148 217.304C234.556 217.304 234.912 217.228 235.216 217.076C235.52 216.916 235.756 216.696 235.924 216.416C236.1 216.128 236.188 215.796 236.188 215.42C236.188 215.044 236.1 214.716 235.924 214.436C235.756 214.148 235.52 213.928 235.216 213.776C234.912 213.616 234.556 213.536 234.148 213.536C233.74 213.536 233.38 213.616 233.068 213.776C232.764 213.928 232.528 214.148 232.36 214.436C232.192 214.716 232.108 215.044 232.108 215.42C232.108 215.796 232.192 216.128 232.36 216.416C232.528 216.696 232.764 216.916 233.068 217.076C233.38 217.228 233.74 217.304 234.148 217.304ZM234.148 212.696C234.444 212.696 234.708 212.636 234.94 212.516C235.172 212.388 235.356 212.216 235.492 212C235.636 211.776 235.708 211.516 235.708 211.22C235.708 210.924 235.636 210.668 235.492 210.452C235.356 210.236 235.172 210.068 234.94 209.948C234.708 209.82 234.444 209.756 234.148 209.756C233.852 209.756 233.584 209.82 233.344 209.948C233.112 210.068 232.924 210.236 232.78 210.452C232.644 210.668 232.576 210.924 232.576 211.22C232.576 211.516 232.644 211.776 232.78 212C232.924 212.216 233.112 212.388 233.344 212.516C233.584 212.636 233.852 212.696 234.148 212.696ZM237.939 219.44L241.995 209.552H243.039L238.983 219.44H237.939ZM247.464 218.144C246.76 218.144 246.14 217.952 245.604 217.568C245.076 217.176 244.664 216.636 244.368 215.948C244.072 215.252 243.924 214.444 243.924 213.524C243.924 212.604 244.072 211.8 244.368 211.112C244.664 210.416 245.076 209.876 245.604 209.492C246.132 209.108 246.748 208.916 247.452 208.916C248.156 208.916 248.772 209.108 249.3 209.492C249.828 209.876 250.24 210.416 250.536 211.112C250.832 211.8 250.98 212.604 250.98 213.524C250.98 214.444 250.832 215.252 250.536 215.948C250.248 216.644 249.84 217.184 249.312 217.568C248.784 217.952 248.168 218.144 247.464 218.144ZM247.464 217.244C247.976 217.244 248.424 217.088 248.808 216.776C249.192 216.464 249.492 216.032 249.708 215.48C249.924 214.92 250.032 214.268 250.032 213.524C250.032 212.78 249.924 212.132 249.708 211.58C249.492 211.02 249.192 210.588 248.808 210.284C248.424 209.972 247.972 209.816 247.452 209.816C246.94 209.816 246.492 209.972 246.108 210.284C245.724 210.588 245.424 211.02 245.208 211.58C244.992 212.132 244.884 212.78 244.884 213.524C244.884 214.26 244.992 214.908 245.208 215.468C245.424 216.028 245.724 216.464 246.108 216.776C246.5 217.088 246.952 217.244 247.464 217.244ZM256.949 218V215.888H252.401V215.108L256.949 209.06H257.789V215.108H258.881V215.888H257.789V218H256.949ZM253.133 215.456L253.025 215.108H256.949V209.888L257.249 209.972L253.133 215.456Z" fill="#7C8FAC"/>
<line x1="337.427" y1="-2.18557e-08" x2="337.427" y2="190" stroke="white"/>
<path d="M322.099 218V209.9H320.419V209.06H323.059V218H322.099ZM326.12 218L329.228 213.932L329.408 213.824C329.288 214.016 329.148 214.168 328.988 214.28C328.828 214.392 328.652 214.472 328.46 214.52C328.268 214.568 328.056 214.592 327.824 214.592C327.304 214.592 326.836 214.472 326.42 214.232C326.004 213.984 325.672 213.648 325.424 213.224C325.184 212.792 325.064 212.3 325.064 211.748C325.064 211.204 325.188 210.72 325.436 210.296C325.692 209.872 326.036 209.536 326.468 209.288C326.908 209.04 327.4 208.916 327.944 208.916C328.504 208.916 329 209.044 329.432 209.3C329.864 209.548 330.204 209.896 330.452 210.344C330.7 210.784 330.824 211.292 330.824 211.868C330.824 212.188 330.784 212.504 330.704 212.816C330.632 213.128 330.52 213.436 330.368 213.74C330.216 214.044 330.024 214.348 329.792 214.652L327.272 218H326.12ZM327.944 213.728C328.32 213.728 328.652 213.644 328.94 213.476C329.228 213.3 329.452 213.064 329.612 212.768C329.78 212.464 329.864 212.124 329.864 211.748C329.864 211.364 329.78 211.024 329.612 210.728C329.444 210.424 329.216 210.188 328.928 210.02C328.64 209.844 328.312 209.756 327.944 209.756C327.576 209.756 327.248 209.844 326.96 210.02C326.672 210.188 326.444 210.424 326.276 210.728C326.108 211.024 326.024 211.364 326.024 211.748C326.024 212.124 326.104 212.464 326.264 212.768C326.432 213.064 326.66 213.3 326.948 213.476C327.244 213.644 327.576 213.728 327.944 213.728ZM331.564 219.44L335.62 209.552H336.664L332.608 219.44H331.564ZM341.089 218.144C340.385 218.144 339.765 217.952 339.229 217.568C338.701 217.176 338.289 216.636 337.993 215.948C337.697 215.252 337.549 214.444 337.549 213.524C337.549 212.604 337.697 211.8 337.993 211.112C338.289 210.416 338.701 209.876 339.229 209.492C339.757 209.108 340.373 208.916 341.077 208.916C341.781 208.916 342.397 209.108 342.925 209.492C343.453 209.876 343.865 210.416 344.161 211.112C344.457 211.8 344.605 212.604 344.605 213.524C344.605 214.444 344.457 215.252 344.161 215.948C343.873 216.644 343.465 217.184 342.937 217.568C342.409 217.952 341.793 218.144 341.089 218.144ZM341.089 217.244C341.601 217.244 342.049 217.088 342.433 216.776C342.817 216.464 343.117 216.032 343.333 215.48C343.549 214.92 343.657 214.268 343.657 213.524C343.657 212.78 343.549 212.132 343.333 211.58C343.117 211.02 342.817 210.588 342.433 210.284C342.049 209.972 341.597 209.816 341.077 209.816C340.565 209.816 340.117 209.972 339.733 210.284C339.349 210.588 339.049 211.02 338.833 211.58C338.617 212.132 338.509 212.78 338.509 213.524C338.509 214.26 338.617 214.908 338.833 215.468C339.049 216.028 339.349 216.464 339.733 216.776C340.125 217.088 340.577 217.244 341.089 217.244ZM350.574 218V215.888H346.026V215.108L350.574 209.06H351.414V215.108H352.506V215.888H351.414V218H350.574ZM346.758 215.456L346.65 215.108H350.574V209.888L350.874 209.972L346.758 215.456Z" fill="#7C8FAC"/>
<line x1="433.427" y1="-2.18557e-08" x2="433.427" y2="190" stroke="white"/>
<path d="M414.623 218V217.4L417.119 214.652C417.607 214.116 418.003 213.672 418.307 213.32C418.619 212.968 418.851 212.648 419.003 212.36C419.155 212.072 419.231 211.76 419.231 211.424C419.231 210.888 419.075 210.476 418.763 210.188C418.451 209.9 418.035 209.756 417.515 209.756C416.979 209.756 416.527 209.908 416.159 210.212C415.799 210.516 415.555 210.94 415.427 211.484L414.551 211.292C414.655 210.804 414.843 210.384 415.115 210.032C415.387 209.68 415.727 209.408 416.135 209.216C416.543 209.016 416.999 208.916 417.503 208.916C418.039 208.916 418.507 209.024 418.907 209.24C419.307 209.456 419.619 209.752 419.843 210.128C420.075 210.504 420.191 210.936 420.191 211.424C420.191 211.76 420.119 212.084 419.975 212.396C419.839 212.708 419.631 213.044 419.351 213.404C419.071 213.764 418.711 214.184 418.271 214.664L416.003 217.16H420.431V218H414.623ZM425.526 218.144C424.822 218.144 424.202 217.952 423.666 217.568C423.138 217.176 422.726 216.636 422.43 215.948C422.134 215.252 421.986 214.444 421.986 213.524C421.986 212.604 422.134 211.8 422.43 211.112C422.726 210.416 423.138 209.876 423.666 209.492C424.194 209.108 424.81 208.916 425.514 208.916C426.218 208.916 426.834 209.108 427.362 209.492C427.89 209.876 428.302 210.416 428.598 211.112C428.894 211.8 429.042 212.604 429.042 213.524C429.042 214.444 428.894 215.252 428.598 215.948C428.31 216.644 427.902 217.184 427.374 217.568C426.846 217.952 426.23 218.144 425.526 218.144ZM425.526 217.244C426.038 217.244 426.486 217.088 426.87 216.776C427.254 216.464 427.554 216.032 427.77 215.48C427.986 214.92 428.094 214.268 428.094 213.524C428.094 212.78 427.986 212.132 427.77 211.58C427.554 211.02 427.254 210.588 426.87 210.284C426.486 209.972 426.034 209.816 425.514 209.816C425.002 209.816 424.554 209.972 424.17 210.284C423.786 210.588 423.486 211.02 423.27 211.58C423.054 212.132 422.946 212.78 422.946 213.524C422.946 214.26 423.054 214.908 423.27 215.468C423.486 216.028 423.786 216.464 424.17 216.776C424.562 217.088 425.014 217.244 425.526 217.244ZM429.935 219.44L433.991 209.552H435.035L430.979 219.44H429.935ZM439.46 218.144C438.756 218.144 438.136 217.952 437.6 217.568C437.072 217.176 436.66 216.636 436.364 215.948C436.068 215.252 435.92 214.444 435.92 213.524C435.92 212.604 436.068 211.8 436.364 211.112C436.66 210.416 437.072 209.876 437.6 209.492C438.128 209.108 438.744 208.916 439.448 208.916C440.152 208.916 440.768 209.108 441.296 209.492C441.824 209.876 442.236 210.416 442.532 211.112C442.828 211.8 442.976 212.604 442.976 213.524C442.976 214.444 442.828 215.252 442.532 215.948C442.244 216.644 441.836 217.184 441.308 217.568C440.78 217.952 440.164 218.144 439.46 218.144ZM439.46 217.244C439.972 217.244 440.42 217.088 440.804 216.776C441.188 216.464 441.488 216.032 441.704 215.48C441.92 214.92 442.028 214.268 442.028 213.524C442.028 212.78 441.92 212.132 441.704 211.58C441.488 211.02 441.188 210.588 440.804 210.284C440.42 209.972 439.968 209.816 439.448 209.816C438.936 209.816 438.488 209.972 438.104 210.284C437.72 210.588 437.42 211.02 437.204 211.58C436.988 212.132 436.88 212.78 436.88 213.524C436.88 214.26 436.988 214.908 437.204 215.468C437.42 216.028 437.72 216.464 438.104 216.776C438.496 217.088 438.948 217.244 439.46 217.244ZM448.945 218V215.888H444.397V215.108L448.945 209.06H449.785V215.108H450.877V215.888H449.785V218H448.945ZM445.129 215.456L445.021 215.108H448.945V209.888L449.245 209.972L445.129 215.456Z" fill="#7C8FAC"/>
<line x1="529.427" y1="-2.18557e-08" x2="529.427" y2="190" stroke="white"/>
<path d="M512.623 218V217.4L515.119 214.652C515.607 214.116 516.003 213.672 516.307 213.32C516.619 212.968 516.851 212.648 517.003 212.36C517.155 212.072 517.231 211.76 517.231 211.424C517.231 210.888 517.075 210.476 516.763 210.188C516.451 209.9 516.035 209.756 515.515 209.756C514.979 209.756 514.527 209.908 514.159 210.212C513.799 210.516 513.555 210.94 513.427 211.484L512.551 211.292C512.655 210.804 512.843 210.384 513.115 210.032C513.387 209.68 513.727 209.408 514.135 209.216C514.543 209.016 514.999 208.916 515.503 208.916C516.039 208.916 516.507 209.024 516.907 209.24C517.307 209.456 517.619 209.752 517.843 210.128C518.075 210.504 518.191 210.936 518.191 211.424C518.191 211.76 518.119 212.084 517.975 212.396C517.839 212.708 517.631 213.044 517.351 213.404C517.071 213.764 516.711 214.184 516.271 214.664L514.003 217.16H518.431V218H512.623ZM521.294 218V209.9H519.614V209.06H522.254V218H521.294ZM523.6 219.44L527.656 209.552H528.7L524.644 219.44H523.6ZM533.124 218.144C532.42 218.144 531.8 217.952 531.264 217.568C530.736 217.176 530.324 216.636 530.028 215.948C529.732 215.252 529.584 214.444 529.584 213.524C529.584 212.604 529.732 211.8 530.028 211.112C530.324 210.416 530.736 209.876 531.264 209.492C531.792 209.108 532.408 208.916 533.112 208.916C533.816 208.916 534.432 209.108 534.96 209.492C535.488 209.876 535.9 210.416 536.196 211.112C536.492 211.8 536.64 212.604 536.64 213.524C536.64 214.444 536.492 215.252 536.196 215.948C535.908 216.644 535.5 217.184 534.972 217.568C534.444 217.952 533.828 218.144 533.124 218.144ZM533.124 217.244C533.636 217.244 534.084 217.088 534.468 216.776C534.852 216.464 535.152 216.032 535.368 215.48C535.584 214.92 535.692 214.268 535.692 213.524C535.692 212.78 535.584 212.132 535.368 211.58C535.152 211.02 534.852 210.588 534.468 210.284C534.084 209.972 533.632 209.816 533.112 209.816C532.6 209.816 532.152 209.972 531.768 210.284C531.384 210.588 531.084 211.02 530.868 211.58C530.652 212.132 530.544 212.78 530.544 213.524C530.544 214.26 530.652 214.908 530.868 215.468C531.084 216.028 531.384 216.464 531.768 216.776C532.16 217.088 532.612 217.244 533.124 217.244ZM542.609 218V215.888H538.061V215.108L542.609 209.06H543.449V215.108H544.541V215.888H543.449V218H542.609ZM538.793 215.456L538.685 215.108H542.609V209.888L542.909 209.972L538.793 215.456Z" fill="#7C8FAC"/>
<line x1="624.427" y1="-2.18557e-08" x2="624.427" y2="190" stroke="white"/>
<path d="M606.623 218V217.4L609.119 214.652C609.607 214.116 610.003 213.672 610.307 213.32C610.619 212.968 610.851 212.648 611.003 212.36C611.155 212.072 611.231 211.76 611.231 211.424C611.231 210.888 611.075 210.476 610.763 210.188C610.451 209.9 610.035 209.756 609.515 209.756C608.979 209.756 608.527 209.908 608.159 210.212C607.799 210.516 607.555 210.94 607.427 211.484L606.551 211.292C606.655 210.804 606.843 210.384 607.115 210.032C607.387 209.68 607.727 209.408 608.135 209.216C608.543 209.016 608.999 208.916 609.503 208.916C610.039 208.916 610.507 209.024 610.907 209.24C611.307 209.456 611.619 209.752 611.843 210.128C612.075 210.504 612.191 210.936 612.191 211.424C612.191 211.76 612.119 212.084 611.975 212.396C611.839 212.708 611.631 213.044 611.351 213.404C611.071 213.764 610.711 214.184 610.271 214.664L608.003 217.16H612.431V218H606.623ZM613.818 218V217.4L616.314 214.652C616.802 214.116 617.198 213.672 617.502 213.32C617.814 212.968 618.046 212.648 618.198 212.36C618.35 212.072 618.426 211.76 618.426 211.424C618.426 210.888 618.27 210.476 617.958 210.188C617.646 209.9 617.23 209.756 616.71 209.756C616.174 209.756 615.722 209.908 615.354 210.212C614.994 210.516 614.75 210.94 614.622 211.484L613.746 211.292C613.85 210.804 614.038 210.384 614.31 210.032C614.582 209.68 614.922 209.408 615.33 209.216C615.738 209.016 616.194 208.916 616.698 208.916C617.234 208.916 617.702 209.024 618.102 209.24C618.502 209.456 618.814 209.752 619.038 210.128C619.27 210.504 619.386 210.936 619.386 211.424C619.386 211.76 619.314 212.084 619.17 212.396C619.034 212.708 618.826 213.044 618.546 213.404C618.266 213.764 617.906 214.184 617.466 214.664L615.198 217.16H619.626V218H613.818ZM620.342 219.44L624.398 209.552H625.442L621.386 219.44H620.342ZM629.866 218.144C629.162 218.144 628.542 217.952 628.006 217.568C627.478 217.176 627.066 216.636 626.77 215.948C626.474 215.252 626.326 214.444 626.326 213.524C626.326 212.604 626.474 211.8 626.77 211.112C627.066 210.416 627.478 209.876 628.006 209.492C628.534 209.108 629.15 208.916 629.854 208.916C630.558 208.916 631.174 209.108 631.702 209.492C632.23 209.876 632.642 210.416 632.938 211.112C633.234 211.8 633.382 212.604 633.382 213.524C633.382 214.444 633.234 215.252 632.938 215.948C632.65 216.644 632.242 217.184 631.714 217.568C631.186 217.952 630.57 218.144 629.866 218.144ZM629.866 217.244C630.378 217.244 630.826 217.088 631.21 216.776C631.594 216.464 631.894 216.032 632.11 215.48C632.326 214.92 632.434 214.268 632.434 213.524C632.434 212.78 632.326 212.132 632.11 211.58C631.894 211.02 631.594 210.588 631.21 210.284C630.826 209.972 630.374 209.816 629.854 209.816C629.342 209.816 628.894 209.972 628.51 210.284C628.126 210.588 627.826 211.02 627.61 211.58C627.394 212.132 627.286 212.78 627.286 213.524C627.286 214.26 627.394 214.908 627.61 215.468C627.826 216.028 628.126 216.464 628.51 216.776C628.902 217.088 629.354 217.244 629.866 217.244ZM639.351 218V215.888H634.803V215.108L639.351 209.06H640.191V215.108H641.283V215.888H640.191V218H639.351ZM635.535 215.456L635.427 215.108H639.351V209.888L639.651 209.972L635.535 215.456Z" fill="#7C8FAC"/>
<path d="M21.0159 186.5C34.1553 159.808 68.7707 102.017 102.118 110.425C147.124 119.433 247.738 124.638 290.146 73.3902C309.327 51.7033 358.199 16.7373 400.245 50.3687C420.181 68.3855 469.204 100.215 505.813 83.3995C516.385 78.0612 541.878 61.7794 559.277 39.3584C576.645 17.3379 623.705 -14.8922 673 32.3519" stroke="#49BEFF" stroke-width="3"/>
<path d="M21.0159 186.162C30.0212 168.329 53.6151 135.662 75.9482 147.662C92.608 157.662 112.42 170.262 139.436 152.662C152.643 142.329 180.86 129.064 216.431 155.162C241.646 173.662 282.62 172.162 305.584 127.662C312.037 112.329 318.641 81.6622 333.5 89.1622C342.055 93.4804 360.516 168.762 400.139 167.162C417.7 165.162 456.693 152.962 472.182 120.162C478.936 108.162 497.577 106.062 514.507 141.662C527.114 165.162 569.439 185.162 617.617 131.162C627.823 119.162 653.098 96.5622 672.55 102.162" stroke="#5D87FF" stroke-width="3"/>
</svg>
