<svg width="35" height="26" viewBox="0 0 35 26" fill="none" xmlns="http://www.w3.org/2000/svg">
<path d="M20.8382 26C23.5996 26 25.8855 23.7425 25.3744 21.0288C25.054 19.3274 24.5691 17.6594 23.9247 16.0502C22.6615 12.8958 20.8099 10.0295 18.4757 7.61522C16.1415 5.2009 13.3705 3.28575 10.3207 1.97913C8.81507 1.33406 7.25605 0.843538 5.66612 0.512196C2.96278 -0.0511822 0.701233 2.23858 0.701233 5V21C0.701233 23.7614 2.93981 26 5.70123 26H20.8382Z" fill="#5D87FF"/>
<g style="mix-blend-mode:multiply">
<path d="M14.4025 26C11.6411 26 9.35518 23.7425 9.86626 21.0288C10.1867 19.3274 10.6715 17.6594 11.3159 16.0502C12.5792 12.8958 14.4308 10.0295 16.7649 7.61522C19.0991 5.2009 21.8702 3.28575 24.9199 1.97913C26.4256 1.33406 27.9846 0.843538 29.5745 0.512196C32.2779 -0.0511822 34.5394 2.23858 34.5394 5V21C34.5394 23.7614 32.3009 26 29.5394 26H14.4025Z" fill="#49BEFF"/>
</g>
</svg>
